<svg width="47" height="50" viewBox="0 0 47 50" fill="none" xmlns="http://www.w3.org/2000/svg">
<path d="M0 20.679C0 9.25828 9.25829 0 20.679 0V28.5654C20.679 39.9861 11.4207 49.2444 0 49.2444V20.679Z" fill="#9B7AEF"/>
<path d="M23.6787 11.2368C23.6787 5.03088 28.7096 0 34.9155 0C41.1214 0 46.1523 5.03087 46.1523 11.2368V11.8855C46.1523 18.0914 41.1214 23.1223 34.9155 23.1223C28.7096 23.1223 23.6787 18.0914 23.6787 11.8855V11.2368Z" fill="#F0A55E"/>
<path d="M23.6787 37.3588C23.6787 31.1529 28.7096 26.1221 34.9155 26.1221C41.1214 26.1221 46.1523 31.1529 46.1523 37.3588V38.0076C46.1523 44.2135 41.1214 49.2444 34.9155 49.2444C28.7096 49.2444 23.6787 44.2135 23.6787 38.0076V37.3588Z" fill="#7AF086"/>
</svg>
